<svg width="94" height="94" viewBox="0 0 94 94" fill="none" xmlns="http://www.w3.org/2000/svg">
<path fill-rule="evenodd" clip-rule="evenodd" d="M6.40906 47.4185V48.1869C6.43324 48.3276 6.45606 48.4685 6.47886 48.6092C6.60666 49.3978 6.73388 50.1828 7.09768 50.9244C7.70786 52.1572 8.51967 53.2804 9.49994 54.2482C11.627 56.3737 13.7582 58.4951 15.8933 60.6124C17.0599 61.7693 18.2229 62.9298 19.3859 64.0903L19.3864 64.0908L19.3868 64.0912C21.5586 66.2584 23.7304 68.4257 25.926 70.5693C26.2331 70.8985 26.5605 71.2073 26.8879 71.516L26.8879 71.516L26.888 71.5162C27.1967 71.8072 27.5053 72.0983 27.7968 72.4064C28.3815 73.0244 28.9886 73.6207 29.5953 74.2165L29.5955 74.2167C29.7162 74.3352 29.8369 74.4538 29.9574 74.5725C30.6996 75.3001 31.4371 76.0313 32.1701 76.7662L32.6684 77.2662C33.2227 77.8226 33.7774 78.3794 34.3349 78.9317C34.7569 79.3497 35.1804 79.767 35.6039 80.1843L35.6087 80.189C35.9109 80.4868 36.213 80.7845 36.5145 81.0824C37.2434 81.8025 37.9686 82.5264 38.694 83.2503L38.6951 83.2514L38.6986 83.255L38.6987 83.255C39.1062 83.6618 39.5138 84.0686 39.922 84.4748C39.987 84.5502 40.0663 84.6121 40.1553 84.6571C40.3094 84.7248 40.4312 84.8491 40.4953 85.0042C40.5891 85.1588 40.7324 85.2775 40.9022 85.3413C41.1676 85.5432 41.4521 85.7164 41.7365 85.8895L41.7367 85.8896L41.7368 85.8897C41.9994 86.0495 42.262 86.2094 42.5094 86.3917C43.3189 86.7818 44.1445 87.1309 45.0532 87.2097C46.0717 87.3024 47.0958 87.3197 48.1169 87.2615C48.2351 87.2542 48.3539 87.2495 48.4729 87.2447C48.9373 87.2262 49.4038 87.2076 49.8492 87.0397C50.0402 86.9131 50.2536 86.8417 50.4669 86.7703L50.467 86.7702L50.4671 86.7702C50.5686 86.7362 50.6702 86.7022 50.7693 86.6623C51.1166 86.5481 51.4509 86.3978 51.7666 86.2139C51.8723 86.1089 51.9988 86.027 52.1382 85.9735C52.2741 85.9119 52.4009 85.8321 52.5152 85.7364C53.0008 85.4204 53.4492 85.0512 53.8521 84.6358C53.9729 84.5528 54.0826 84.4549 54.1785 84.3442C57.2534 81.2862 60.3257 78.2254 63.3953 75.1621C64.6655 73.8944 65.9389 72.6298 67.2123 71.3653L67.2133 71.3643L67.2162 71.3615C69.2522 69.3396 71.2881 67.3178 73.3111 65.2833C73.364 65.1818 73.4489 65.1101 73.5337 65.0385C73.603 64.9799 73.6723 64.9214 73.7239 64.8467L73.7258 64.844C73.8082 64.7247 73.9039 64.586 73.8021 64.4467C73.7004 64.3075 73.5702 64.3654 73.4426 64.422L73.4066 64.4379C73.3303 64.4708 73.253 64.5008 73.1756 64.5309L73.1756 64.5309C73.0315 64.5869 72.8874 64.6429 72.7496 64.7174C70.9406 65.696 69.089 66.5888 67.2301 67.4697C62.8937 69.5243 58.3644 71.0617 53.815 72.5477C60.8222 70.1368 67.3138 66.6845 73.5097 62.6351C73.6473 62.5655 73.776 62.4799 73.8932 62.38C74.1513 62.1567 74.4367 61.9668 74.7425 61.8146C74.8058 61.7759 74.8643 61.7301 74.9171 61.678C75.1027 61.5025 75.3208 61.3749 75.5389 61.2473C75.7036 61.1509 75.8682 61.0546 76.0189 60.9377C77.6482 59.7805 79.2672 58.6094 80.8092 57.3367C80.9796 57.1605 81.1685 57.0031 81.3727 56.8672C81.5109 56.7658 81.6382 56.6503 81.7522 56.5225C81.8341 56.4186 81.9419 56.3474 82.0497 56.2763C82.1235 56.2276 82.1973 56.1789 82.2627 56.1197C82.3227 56.0786 82.3776 56.0307 82.4265 55.977C82.5764 55.8238 82.742 55.6866 82.9205 55.5677C82.9585 55.5374 82.9938 55.5038 83.0259 55.4675C83.1249 55.3735 83.2335 55.2909 83.342 55.2083L83.3421 55.2082C83.469 55.1116 83.596 55.015 83.7077 54.9001C83.7644 54.8501 83.8178 54.7964 83.8675 54.7394C84.1599 54.4157 84.4752 54.1131 84.8111 53.8342C84.8869 53.7828 84.9567 53.723 85.019 53.656C87.4663 51.0809 88.285 48.0481 87.5325 44.6029C87.1463 42.8348 86.3411 41.2703 85.0091 40.0036C84.7573 39.7621 84.5138 39.5126 84.2703 39.2632L84.2703 39.2631L84.2702 39.2631C84.0921 39.0805 83.9139 38.898 83.7325 38.7186C81.4861 36.4832 79.2386 34.2488 76.9901 32.0156C74.8464 29.8852 72.7035 27.7539 70.5615 25.6218C68.2883 23.3615 66.0167 21.0998 63.7465 18.8366C63.1603 18.2523 62.5751 17.6668 61.99 17.0814C60.4126 15.5033 58.8352 13.9252 57.2376 12.3678C56.7983 11.9395 56.3704 11.4984 55.9425 11.0571L55.9424 11.0571L55.9423 11.057C54.6766 9.75202 53.4103 8.4464 51.8444 7.47008C50.4507 6.64689 48.9268 6.37532 47.3289 6.41593H46.6443C44.1772 6.32405 42.0282 7.15471 40.3007 8.85833C33.8824 15.2237 27.4722 21.5968 21.07 27.9777C20.8916 28.1976 20.6981 28.4048 20.4907 28.5979C20.3335 28.748 20.1799 28.9 20.3288 29.1405C20.5907 29.2901 20.8177 29.1638 21.0363 29.0402C21.4152 28.8258 21.8067 28.6371 22.1982 28.4485L22.3811 28.3602C23.085 27.9297 23.8307 27.5823 24.5765 27.2349L24.5768 27.2347C24.8922 27.0878 25.2076 26.9409 25.52 26.7876C30.5572 24.3158 35.8462 22.5031 41.1755 20.7931C40.9063 20.8812 40.6367 20.9678 40.3673 21.0541C36.0851 22.4258 32.0781 24.414 28.1055 26.4747C26.0903 27.52 24.1453 28.6905 22.2303 29.9093C21.5958 30.275 20.9864 30.6796 20.3772 31.0842L20.3771 31.0842L20.3771 31.0843C19.9103 31.3943 19.4435 31.7042 18.9654 31.9966C18.6289 32.3457 18.2265 32.6062 17.8242 32.8666C17.5438 33.0481 17.2634 33.2296 17.0053 33.4411C16.1287 34.0344 15.2891 34.6773 14.4494 35.3202L14.161 35.5409C13.9443 35.7428 13.714 35.9298 13.4717 36.1006C13.0509 36.4172 12.6507 36.7587 12.2552 37.1057C12.0914 37.2435 11.927 37.3807 11.7627 37.5178L11.7625 37.5179L11.7624 37.518C10.9528 38.1935 10.1431 38.8689 9.40257 39.622C8.97374 40.0393 8.57185 40.4818 8.17008 40.9242L8.1613 40.9338C8.08365 41.005 8.02694 41.096 7.99727 41.1968C7.74225 41.6253 7.47839 42.0484 7.21185 42.4693C6.69122 43.3422 6.56685 44.3173 6.44247 45.2925L6.44247 45.2925C6.43143 45.3791 6.42038 45.4657 6.40906 45.5522V46.1011C6.5002 46.5356 6.5002 46.984 6.40906 47.4185ZM41.9506 20.5404C42.0524 20.5135 42.1531 20.4823 42.2537 20.4511L42.3085 20.4341L42.3018 20.436C42.1843 20.4693 42.0667 20.5026 41.9506 20.5404ZM42.5569 20.3618C42.6294 20.3615 42.694 20.3321 42.7583 20.303C42.7947 20.2865 42.831 20.27 42.8685 20.2589C42.829 20.2701 42.7915 20.2872 42.7541 20.3042C42.6917 20.3325 42.6296 20.3607 42.5597 20.3609L42.5569 20.3618ZM42.9786 20.2463L42.9803 20.2465C43.012 20.2359 43.0058 20.2382 42.9988 20.2407L42.9924 20.2432C42.9921 20.2434 42.998 20.2415 43.0192 20.2345C43.0118 20.2357 43.0047 20.238 42.997 20.2407C42.9914 20.2425 42.9854 20.2446 42.9786 20.2463ZM52.1184 73.1056C52.0946 73.1113 52.0706 73.1165 52.0466 73.1217C51.9894 73.1342 51.9322 73.1467 51.8766 73.1652C51.7358 73.2272 51.5859 73.2665 51.4326 73.2816C51.2309 73.383 51.0155 73.455 50.7932 73.4956L50.7848 73.4986C51.007 73.4595 51.2222 73.3881 51.4235 73.2867C51.5793 73.2679 51.7317 73.2276 51.8763 73.167C51.958 73.1502 52.0387 73.1298 52.1184 73.1056ZM50.7677 73.5055C50.7445 73.5152 50.7221 73.5267 50.7007 73.5399C50.7063 73.5375 50.7117 73.5349 50.7171 73.5321C50.7242 73.5285 50.7312 73.5247 50.7383 73.5209L50.7388 73.5206L50.7553 73.5117L50.7677 73.5055ZM62.5515 49.393L62.6787 49.0684C62.6716 48.8659 62.7424 48.6683 62.8767 48.5159C62.9621 48.3922 63.0079 48.2456 63.0079 48.0955C63.027 48.0365 63.04 47.9754 63.053 47.9143C63.0821 47.7781 63.1111 47.6419 63.2078 47.5294C63.2265 47.4635 63.2416 47.3954 63.2568 47.3274C63.2919 47.169 63.327 47.0106 63.4081 46.8806C63.4395 46.8301 63.4365 46.7607 63.4335 46.6926C63.4281 46.5705 63.4229 46.4524 63.6171 46.4547C63.7729 46.4565 63.8121 46.583 63.8495 46.7038C63.8624 46.7453 63.875 46.7862 63.8921 46.8211C64.921 48.9199 65.9457 51.0208 66.9664 53.1236C66.9745 53.1403 66.9823 53.1568 66.9899 53.1731L66.9901 53.1735C67.0666 53.3361 67.1313 53.4739 67.3788 53.47C68.1226 53.4583 68.8665 53.4602 69.6253 53.4621C69.9125 53.4628 70.2018 53.4635 70.494 53.4635C70.4717 53.3823 70.4448 53.3024 70.4136 53.2241C68.2289 48.721 66.0402 44.2199 63.8477 39.7206C63.8353 39.6951 63.8257 39.6656 63.8158 39.6354C63.7852 39.5416 63.7524 39.441 63.6275 39.4346C63.4599 39.4261 63.4368 39.5486 63.4158 39.66C63.4097 39.6925 63.4037 39.724 63.3944 39.7511C62.9731 40.9742 62.5564 42.199 62.1397 43.4237L62.1391 43.4255C61.9447 43.997 61.7502 44.5685 61.5553 45.1398C61.4863 45.3421 61.4124 45.5427 61.3322 45.7606L61.3318 45.7616C61.2928 45.8676 61.2523 45.9776 61.2102 46.0938C61.1674 46.0286 61.1293 45.9719 61.0947 45.9203L61.0945 45.92C61.0292 45.8228 60.9765 45.7443 60.9283 45.6631C60.6224 45.1481 60.317 44.6329 60.0116 44.1177L60.0109 44.1164C59.1976 42.7444 58.3844 41.3724 57.5618 40.0059C57.5283 39.9504 57.5005 39.8834 57.4721 39.815C57.3838 39.6025 57.2895 39.3757 57.0024 39.4313C56.7602 39.4783 56.7486 39.6987 56.7377 39.9083C56.7339 39.9817 56.7301 40.0538 56.7165 40.1167C56.5309 40.9754 56.358 41.8369 56.1852 42.6984C56.1211 43.0179 56.057 43.3374 55.9923 43.6567C55.36 46.787 54.7245 49.9166 54.0858 53.0455C54.0287 53.3249 54.0383 53.4815 54.4046 53.4718C55.3045 53.4481 56.2055 53.4564 57.1059 53.4655C57.3517 53.468 57.4524 53.3944 57.498 53.1377C57.6171 52.4664 57.7537 51.7981 57.8903 51.1299L57.8904 51.1295C57.9402 50.8859 57.99 50.6423 58.0389 50.3985C58.1883 49.6543 58.338 48.9101 58.4937 48.1358L58.7106 47.0573L60.9932 50.3918C61.2763 50.4608 61.3627 50.6601 61.35 50.9251L61.3518 50.9284C61.6217 51.1258 61.7962 50.9799 61.9706 50.834C62.0209 50.792 62.0712 50.7499 62.1237 50.7161L62.1226 50.7191C62.1636 50.667 62.1637 50.6044 62.1638 50.5439C62.1639 50.4944 62.164 50.4462 62.1865 50.4064C62.258 50.28 62.2721 50.1334 62.2861 49.987C62.3074 49.7645 62.3287 49.5425 62.5515 49.393ZM45.0177 40.1295C45.0181 40.1437 45.0185 40.1579 45.0183 40.1719C45.0076 40.2114 45.0018 40.2534 44.996 40.2953C44.9781 40.4243 44.9602 40.5533 44.8016 40.6141L44.8008 40.6165C44.7633 40.6675 44.7545 40.7324 44.7456 40.7973C44.7315 40.9009 44.7173 41.0045 44.5871 41.0517C44.0636 42.0195 43.5826 43.0078 43.1442 44.0165C43.1392 44.2461 43.0841 44.4719 42.9826 44.6781C42.8811 44.8844 42.7358 45.0662 42.5566 45.2109L38.4872 53.464C38.6664 53.464 38.8363 53.4643 38.9999 53.4646L39.0029 53.4646H39.0036C39.355 53.4654 39.6773 53.466 39.9997 53.4631C40.175 53.4615 40.3621 53.4773 40.5493 53.4932C40.9887 53.5305 41.4294 53.5679 41.7236 53.3798C42.0413 53.1767 42.1983 52.7074 42.3493 52.2561C42.3958 52.1171 42.4417 51.9798 42.4916 51.8526C42.6172 51.532 42.81 51.4735 43.1177 51.4774C43.4227 51.4813 43.7285 51.4909 44.0345 51.5006H44.0345H44.0346H44.0346H44.0346C44.8901 51.5275 45.7466 51.5544 46.5878 51.4563C47.8759 51.3059 48.6284 51.7124 48.8906 52.9821C48.9253 53.0861 48.9699 53.1866 49.0239 53.2822C49.0384 53.335 49.0702 53.3814 49.1143 53.4141C49.1583 53.4468 49.2121 53.4639 49.2671 53.4627C50.0707 53.4611 50.8743 53.4612 51.713 53.4614L52.5084 53.4615C52.2784 52.9956 52.053 52.5383 51.8305 52.087L51.8304 52.0866L51.8285 52.0829C51.3472 51.1062 50.8796 50.1574 50.4081 49.2105C48.9572 46.3014 47.5061 43.3925 46.0547 40.4838C45.9425 40.4509 45.8405 40.3902 45.7584 40.3073C45.6763 40.2245 45.6167 40.1222 45.5852 40.0101C45.4822 39.7172 45.3011 39.7256 45.1097 39.9469C45.0131 39.9812 45.0154 40.0554 45.0177 40.1295ZM45.8953 45.9564L45.4404 44.8683C45.2785 45.2487 45.121 45.62 44.9665 45.9844L44.9662 45.9849L44.9662 45.9851C44.5522 46.9613 44.1589 47.8885 43.7566 48.8117C43.6286 49.1054 43.7296 49.1577 44.0001 49.1557C44.9543 49.1481 45.9085 49.148 46.8626 49.1554C47.1157 49.1573 47.2015 49.0776 47.0993 48.8339C46.7052 47.8941 46.3122 46.9538 45.8953 45.9564ZM28.4871 48.0585C28.6291 47.7605 28.771 47.4625 28.9114 47.1638C29.0068 47.0608 29.0369 46.9245 29.067 46.7881C29.1075 46.6048 29.1479 46.4215 29.347 46.3191L29.5051 46.0035C29.4172 45.8971 29.4802 45.8659 29.5432 45.8347C29.572 45.8204 29.6009 45.8061 29.6152 45.7846L32.7901 39.4123C32.4846 39.4123 32.1892 39.4142 31.9008 39.4161C31.2148 39.4207 30.569 39.4249 29.9241 39.4021C29.5213 39.3879 29.3178 39.5032 29.1389 39.8787C28.4612 41.3018 27.7722 42.7195 27.0832 44.1372C26.474 45.3907 25.8648 46.6443 25.2633 47.9016C25.1007 48.2415 24.9286 48.5774 24.7564 48.9133C24.312 49.7805 23.8673 50.6482 23.586 51.5868C23.2122 52.834 23.678 53.4538 24.9827 53.461C26.1556 53.4675 27.3285 53.4663 28.5014 53.465C29.0008 53.4644 29.5002 53.4639 29.9997 53.464C32.1866 53.4661 34.3734 53.4656 36.5603 53.4625C36.5912 53.4625 36.624 53.4646 36.6569 53.4668C36.8347 53.4786 37.0183 53.4908 36.9487 53.1575C36.5639 51.2989 36.1826 49.4397 35.8049 47.5798C35.7628 47.3728 35.6793 47.2761 35.4418 47.2783C34.1923 47.2899 32.9425 47.2857 31.6929 47.2794C31.4623 47.2783 31.3616 47.3227 31.423 47.5894C31.5339 48.051 31.6174 48.5187 31.673 48.99C31.7233 49.4568 31.8797 49.7322 32.4134 49.6366C32.5853 49.6059 32.817 49.5801 32.843 49.8434C32.8573 49.9884 32.8926 50.1309 32.9278 50.2732C32.9924 50.534 33.0569 50.7943 32.9917 51.0683C32.9848 51.0972 32.8599 51.1107 32.7899 51.1104C32.3777 51.1085 31.9655 51.1079 31.5533 51.1073C30.3853 51.1056 29.2173 51.104 28.0502 51.072C27.4108 51.0545 27.2402 50.7703 27.4864 50.2126C27.806 49.4884 28.1466 48.7735 28.4871 48.0585Z" fill="#F1F1F1"/>
</svg>
